<?xml version="1.0" standalone="no"?><svg xmlns="http://www.w3.org/2000/svg" viewBox="0 0 1440 320"><path fill="#ff5500" fill-opacity="0.8" d="M0,32L18.5,58.7C36.9,85,74,139,111,176C147.7,213,185,235,222,213.3C258.5,192,295,128,332,133.3C369.2,139,406,213,443,234.7C480,256,517,224,554,208C590.8,192,628,192,665,208C701.5,224,738,256,775,245.3C812.3,235,849,181,886,186.7C923.1,192,960,256,997,261.3C1033.8,267,1071,213,1108,186.7C1144.6,160,1182,160,1218,138.7C1255.4,117,1292,75,1329,69.3C1366.2,64,1403,96,1422,112L1440,128L1440,320L1421.5,320C1403.1,320,1366,320,1329,320C1292.3,320,1255,320,1218,320C1181.5,320,1145,320,1108,320C1070.8,320,1034,320,997,320C960,320,923,320,886,320C849.2,320,812,320,775,320C738.5,320,702,320,665,320C627.7,320,591,320,554,320C516.9,320,480,320,443,320C406.2,320,369,320,332,320C295.4,320,258,320,222,320C184.6,320,148,320,111,320C73.8,320,37,320,18,320L0,320Z"></path></svg>